<svg xmlns="http://www.w3.org/2000/svg" xmlns:xlink="http://www.w3.org/1999/xlink" width="1920" zoomAndPan="magnify" viewBox="0 0 1440 1439.999935" height="1920" preserveAspectRatio="xMidYMid meet" version="1.0"><defs><clipPath id="666fad51b5"><path d="M 153 63.660156 L 1343 63.660156 L 1343 1398 L 153 1398 Z M 153 63.660156 " clip-rule="nonzero"/></clipPath></defs><rect x="-144" width="1728" fill="#ffffff" y="-143.999994" height="1727.999922" fill-opacity="1"/><rect x="-144" width="1728" fill="#ffffff" y="-143.999994" height="1727.999922" fill-opacity="1"/><g clip-path="url(#666fad51b5)"><path fill="#1f1f1f" d="M 441.339844 1327.292969 L 441.339844 1025.035156 C 454.433594 1006.285156 474.65625 980.960938 503.683594 955.652344 C 525.414062 936.757812 548.898438 920.582031 578.9375 904.425781 C 683.546875 848.25 805.128906 825.609375 812.28125 824.324219 C 935.203125 802.238281 949.59375 816.515625 1049.214844 795.640625 C 1082.574219 788.613281 1133.234375 773.425781 1184.179688 737.386719 C 1283.984375 666.847656 1353.566406 538.699219 1341.441406 400.386719 C 1325.425781 218.785156 1177.351562 73.507812 991.089844 63.757812 L 153.289062 63.675781 L 153.617188 389.769531 C 153.804688 490.804688 154.03125 591.777344 154.171875 692.8125 C 173.78125 675.296875 199.390625 654.152344 230.996094 632.148438 C 283.734375 595.46875 328.125 573.894531 344.511719 566.273438 C 369.789062 554.445312 402.28125 540.90625 441.269531 528.894531 L 441.269531 302.675781 L 789.496094 302.675781 C 817.285156 288.722656 848.648438 280.828125 881.863281 280.828125 C 995.691406 280.828125 1087.933594 373.269531 1087.933594 487.226562 C 1087.933594 535.320312 1071.546875 579.523438 1044 614.636719 C 1049.816406 611.03125 1055.898438 607.011719 1062.085938 602.539062 C 1104.035156 572.1875 1127.605469 538.785156 1145.417969 513.105469 C 1151.359375 504.554688 1170.511719 472.59375 1191.558594 428.148438 C 1219.105469 369.992188 1223.167969 320.089844 1224.007812 307.621094 C 1225.886719 279.71875 1223.679688 256.207031 1221.140625 239.292969 C 1231.574219 273.621094 1253.347656 362.582031 1217.824219 463.300781 C 1191.472656 537.914062 1146.300781 583.042969 1125.824219 603.09375 C 1101.871094 626.519531 1042.019531 684.632812 952.601562 700.605469 C 901.101562 709.796875 849.789062 703.242188 767.207031 692.710938 C 737.667969 688.921875 702.1875 683.148438 653.652344 689.890625 C 644.828125 691.144531 615.859375 695.476562 581.402344 708.089844 C 562.207031 715.113281 501.902344 739.136719 430.753906 808.378906 C 304.097656 931.585938 160.957031 1180.675781 153.804688 1193.285156 C 153.890625 1261.371094 153.988281 1329.472656 154.074219 1397.558594 " fill-opacity="1" fill-rule="nonzero"/></g><path fill="#cea8f0" d="M 351.179688 612.925781 C 308.089844 632.519531 292.027344 643.976562 252.199219 672.746094 C 211.542969 702.175781 179.152344 732.382812 154.203125 758.945312 C 154.289062 801.765625 154.386719 844.644531 154.472656 887.46875 L 153.960938 1090.085938 C 242.453125 938.011719 336.21875 835.925781 401.96875 773.46875 C 431.90625 745.050781 482.722656 705.980469 543.898438 668.601562 C 581.503906 642.867188 642.636719 596.953125 633.542969 574.492188 C 622.371094 546.921875 529.816406 557.765625 497.65625 562.625 C 484.789062 564.332031 457.285156 571.359375 434.542969 578.183594 C 431.078125 579.253906 402.007812 589.785156 351.164062 612.882812 L 351.164062 612.925781 Z M 351.179688 612.925781 " fill-opacity="1" fill-rule="nonzero"/><path fill="#c8f000" d="M 1033.339844 579.382812 C 979.175781 533.28125 901.65625 558.035156 850.117188 592.546875 C 835.582031 602.296875 821.871094 611.53125 805.910156 618.328125 C 773.421875 632.191406 738.824219 624.609375 714.183594 597.351562 C 667.117188 545.28125 661.773438 464.8125 699.335938 404.535156 C 711.378906 385.269531 725.996094 368.554688 746.632812 360.601562 C 779.390625 347.949219 813.078125 357.507812 840.398438 379.210938 C 859.632812 394.503906 878.785156 407.570312 900.332031 418.34375 C 942.226562 437.878906 1004.285156 444.207031 1038.386719 407.070312 C 1068.140625 460.050781 1063.109375 525.375 1033.355469 579.339844 L 1033.355469 579.382812 Z M 1033.339844 579.382812 " fill-opacity="1" fill-rule="nonzero"/><path fill="#1f1f1f" d="M 1031.488281 581.546875 C 1007.433594 561.070312 977.039062 553.332031 941.144531 558.546875 C 912.1875 562.765625 880.410156 575.675781 851.683594 594.914062 L 851.226562 595.214844 C 836.734375 604.933594 823.039062 614.109375 807.007812 620.949219 C 795.867188 625.707031 784.566406 628.03125 773.523438 628.03125 C 750.808594 628.03125 729.148438 618.171875 712.046875 599.261719 C 688.960938 573.722656 674.796875 539.980469 672.160156 504.226562 C 669.539062 468.773438 678.332031 432.820312 696.898438 403.023438 C 711.691406 379.367188 727.152344 365.046875 745.589844 357.9375 C 777.082031 345.765625 811.382812 352.535156 842.148438 376.976562 C 863.195312 393.703125 882.078125 406.03125 901.585938 415.792969 C 943.667969 435.414062 1003.816406 440.472656 1036.261719 405.148438 L 1038.925781 402.253906 L 1040.851562 405.6875 C 1069.652344 456.972656 1067.898438 522.109375 1036.191406 580.078125 C 1035.480469 581.390625 1034.722656 582.460938 1034.011719 583.769531 M 776.925781 357.75 C 767.007812 357.75 757.191406 359.574219 747.65625 363.253906 C 730.429688 369.890625 715.851562 383.488281 701.757812 406.03125 C 683.816406 434.816406 675.339844 469.527344 677.875 503.800781 C 680.425781 538.285156 694.078125 570.832031 716.308594 595.425781 C 740.003906 621.648438 773.09375 629.226562 804.800781 615.691406 C 820.347656 609.066406 833.828125 600.03125 848.078125 590.46875 L 848.535156 590.167969 C 902.253906 554.203125 978.324219 531.730469 1032.488281 574.964844 C 1061.34375 520.601562 1063.28125 460.152344 1037.746094 411.832031 C 1002.832031 446.160156 941.957031 440.886719 899.136719 420.921875 C 879.199219 410.945312 859.988281 398.421875 838.628906 381.433594 C 818.90625 365.773438 797.71875 357.75 776.925781 357.75 Z M 776.925781 357.75 " fill-opacity="1" fill-rule="nonzero"/><path fill="#c8f000" d="M 1028.125 390.171875 C 988.910156 432.847656 920.851562 410.734375 880.980469 380.980469 C 847.707031 356.167969 823.539062 334.824219 780.859375 333.769531 C 843.789062 300.410156 911.53125 293.667969 974.460938 332.699219 C 996.976562 346.652344 1015.015625 366.003906 1028.125 390.171875 Z M 1028.125 390.171875 " fill-opacity="1" fill-rule="nonzero"/><path fill="#1f1f1f" d="M 970.882812 416.789062 C 965.570312 416.789062 960.066406 416.375 954.398438 415.550781 C 929.261719 411.886719 901.886719 400.117188 879.285156 383.257812 C 876.265625 381.007812 873.328125 378.785156 870.4375 376.605469 C 841.523438 354.789062 818.695312 337.546875 780.804688 336.605469 L 769.917969 336.332031 L 779.535156 331.230469 C 849.375 294.210938 917.304688 293.867188 975.972656 330.261719 C 998.871094 344.457031 1017.269531 364.148438 1030.632812 388.800781 L 1031.601562 390.597656 L 1030.222656 392.09375 C 1015.246094 408.394531 994.9375 416.789062 970.871094 416.789062 Z M 791.40625 331.617188 C 825.179688 335.308594 847.90625 352.480469 873.855469 372.058594 C 876.734375 374.238281 879.667969 376.449219 882.675781 378.683594 C 918.515625 405.433594 985.449219 430.042969 1024.621094 389.714844 C 1011.824219 366.785156 994.4375 348.433594 972.949219 335.109375 C 918.671875 301.449219 856.085938 300.28125 791.40625 331.601562 Z M 791.40625 331.617188 " fill-opacity="1" fill-rule="nonzero"/><path fill="#c8f000" d="M 1021.398438 596.566406 C 964.683594 676.953125 849.84375 703.699219 767.152344 646.785156 C 832.261719 645.671875 846.695312 612.183594 901.558594 588.53125 C 940.960938 571.53125 986.6875 565.574219 1021.386719 596.566406 Z M 1021.398438 596.566406 " fill-opacity="1" fill-rule="nonzero"/><path fill="#1f1f1f" d="M 865.675781 680.015625 C 829.695312 680.015625 795.109375 669.484375 765.527344 649.136719 L 758.203125 644.089844 L 767.09375 643.933594 C 808.0625 643.234375 828.625 629.414062 852.421875 613.398438 C 865.605469 604.53125 880.554688 594.488281 900.417969 585.910156 C 935.84375 570.617188 986.503906 559.789062 1025.148438 596.152344 C 997.402344 636.636719 953.3125 665.792969 904.59375 675.953125 C 891.554688 678.675781 878.53125 680.015625 865.675781 680.015625 Z M 776.1875 649.265625 C 813.621094 672.25 858.453125 679.757812 903.4375 670.367188 C 949.082031 660.847656 990.535156 634.171875 1017.566406 597.023438 C 981.683594 566.769531 935.429688 577.015625 902.683594 591.136719 C 883.304688 599.503906 869.222656 608.964844 855.617188 618.113281 C 832.84375 633.433594 812.964844 646.796875 776.1875 649.25 Z M 776.1875 649.265625 " fill-opacity="1" fill-rule="nonzero"/></svg>