<svg width="739" height="157" viewBox="0 0 739 157" fill="none" xmlns="http://www.w3.org/2000/svg">
<g clip-path="url(#clip0_376_260)">
<path fill-rule="evenodd" clip-rule="evenodd" d="M90.3807 132.058C90.3807 129.802 90.4163 31.9056 90.3204 30.3238C90.155 27.6127 88.86 25.2299 86.3612 24.2373C84.5722 23.5263 39.8142 9.32983 37.801 8.77877C36.465 8.4132 34.7649 9.20565 34.7649 10.8511L34.826 158.418C34.826 159.637 35.5543 161.587 37.9224 160.429C40.2905 159.271 85.5046 138.96 86.6488 138.227C89.0764 136.67 90.3807 135.37 90.3807 132.058ZM94.6498 34.7975V129.257C94.6498 134.749 94.5354 140 88.7813 142.804C84.1614 145.055 44.7665 164.649 37.4307 168.188C30.0949 171.728 25.2048 167.335 25.2048 162.575V8.19192C25.2048 1.60209 30.4623 -1.69321 37.9203 0.870147C45.3783 3.43273 77.2887 15.5145 86.7029 18.9318C96.1171 22.349 94.6498 30.0376 94.6498 34.7975ZM71.272 32.8003L88.649 37.0021L88.4657 124.582L37.4941 143.401L37.3722 24.3347L62.6139 30.6684C63.1628 32.0085 65.0525 34.5662 67.4919 35.175C69.9305 35.7845 71.272 32.8003 71.272 32.8003ZM8.70063 13.0933V151.752C8.70063 156.786 9.80181 160.224 14.2175 160.762C15.9053 160.968 17.3845 159.619 17.383 157.932L17.2645 8.73718C17.263 6.9599 15.5406 5.70319 13.8175 6.18875C8.25201 7.7575 8.70063 13.0933 8.70063 13.0933ZM-19.1131 23.3096V138.48C-19.1131 143.87 -18.3041 145.597 -15.02 145.995C-13.9686 146.122 -13.0346 145.351 -13.0355 144.365L-13.1196 18.797C-13.1196 17.877 -14.0577 17.197 -15.0158 17.427C-19.4539 18.4957 -19.1131 23.3096 -19.1131 23.3096ZM0.775328 14.7544L0.870105 150.481C0.870882 152.005 -0.499492 153.188 -1.99882 152.924C-5.25152 152.351 -6.07576 150.394 -6.07576 144.763V18.3544C-6.07576 18.3544 -6.38262 14.1939 -2.90697 12.437C-1.22041 11.5842 0.774551 12.8622 0.775328 14.7544ZM241.704 45.6515H227.712C226.843 45.6515 226.147 46.3468 226.147 47.2159V50.6053C221.976 47.129 216.674 44.9562 210.764 44.9562C197.641 44.9562 187.038 55.5592 187.038 68.6826V75.2008C187.038 88.3242 197.641 98.9272 210.764 98.9272C216.587 98.9272 221.976 96.8413 226.147 93.278V96.4068C226.147 97.2759 226.843 97.9712 227.712 97.9712H241.704C242.573 97.9712 243.269 97.2759 243.269 96.4068V47.3028C243.269 46.3468 242.573 45.6515 241.704 45.6515ZM215.197 87.8896C211.633 87.8896 208.244 86.586 206.158 82.8489C204.681 80.1547 203.898 75.6354 203.898 71.9851C203.898 68.5088 204.594 64.1633 205.897 61.556C207.983 57.5581 211.46 56.0807 215.197 56.0807C218.586 56.0807 221.802 57.2974 223.888 60.6C225.626 63.3811 226.495 67.9873 226.495 71.9851C226.495 75.983 225.8 80.1547 224.235 82.8489C222.236 86.4991 218.76 87.8896 215.197 87.8896ZM590.125 45.6515H576.133C575.264 45.6515 574.569 46.3468 574.569 47.2159V50.2577C570.397 46.6944 565.008 44.5217 559.099 44.5217C545.975 44.5217 535.372 55.1247 535.372 68.248V74.7663C535.372 87.8896 545.975 98.4926 559.099 98.4926C565.008 98.4926 570.484 96.3199 574.569 92.7566V96.4937C574.569 97.3628 575.264 98.0581 576.133 98.0581H590.125C590.995 98.0581 591.69 97.3628 591.69 96.4937V47.3028C591.69 46.3468 590.995 45.6515 590.125 45.6515ZM563.531 87.542C559.968 87.542 556.578 86.2384 554.492 82.5012C553.015 79.807 552.233 75.2877 552.233 71.6375C552.233 68.1611 552.928 63.8156 554.232 61.2083C556.318 57.2105 559.794 55.733 563.531 55.733C566.92 55.733 570.136 56.9498 572.222 60.2523C573.96 63.0334 574.829 67.6397 574.829 71.6375C574.829 75.6354 574.134 79.807 572.57 82.5012C570.484 86.1514 567.007 87.542 563.531 87.542ZM630.886 47.3897V55.5592C630.886 56.4283 630.191 57.1236 629.322 57.1236H617.937V83.0227C617.415 89.6278 627.236 86.6729 628.366 86.4991C629.409 86.2384 630.538 86.4122 630.538 87.9765C630.538 89.8016 630.538 93.0173 630.538 94.7555C630.538 96.4068 630.365 97.0152 628.713 97.4497C621.239 99.7094 618.284 98.8403 616.807 98.7534C608.463 98.4926 600.815 92.322 600.815 83.1096V29.8339C600.815 28.9648 601.511 28.2695 602.38 28.2695H616.372C617.241 28.2695 617.937 28.9648 617.937 29.8339V45.9122H629.235C630.191 45.8253 630.886 46.5206 630.886 47.3897ZM157.749 44.8693C151.839 44.8693 146.451 47.042 142.366 50.5184V47.2159C142.366 46.3468 141.671 45.6515 140.802 45.6515H126.809C125.94 45.6515 125.245 46.3468 125.245 47.2159V122.393C125.245 123.262 125.94 123.957 126.809 123.957H140.802C141.671 123.957 142.366 123.262 142.366 122.393V93.1911C146.538 96.7544 151.926 98.9272 157.749 98.9272C170.873 98.9272 181.476 88.3242 181.476 75.2008V68.6826C181.563 55.5592 170.873 44.8693 157.749 44.8693ZM162.182 82.8489C160.096 86.4122 156.619 87.8896 153.143 87.8896C149.667 87.8896 146.19 86.586 144.104 82.8489C142.627 80.1547 141.845 75.6354 141.845 71.9851C141.845 68.5088 142.54 64.1633 143.844 61.556C145.93 57.5581 149.406 56.0807 153.143 56.0807C156.533 56.0807 159.748 57.2974 161.834 60.6C163.572 63.3811 164.441 67.9873 164.441 71.9851C164.441 75.983 163.746 80.1547 162.182 82.8489ZM665.824 44.3478H661.044C646.704 44.3478 635.058 55.9938 635.058 70.3339V73.2019C635.058 87.542 646.704 99.1879 661.044 99.1879H665.824C680.164 99.1879 691.81 87.542 691.81 73.2019V70.3339C691.81 55.9938 680.164 44.3478 665.824 44.3478ZM672.516 82.5881C670.43 86.1514 666.954 87.6289 663.477 87.6289C659.914 87.6289 656.524 86.3253 654.439 82.5881C652.961 79.8939 652.179 75.3746 652.179 71.7244C652.179 68.248 652.874 63.9025 654.178 61.2952C656.264 57.2974 659.653 55.8199 663.477 55.8199C666.867 55.8199 670.082 57.0367 672.168 60.3392C673.906 63.1204 674.775 67.7266 674.775 71.7244C674.689 75.6354 674.08 79.807 672.516 82.5881ZM422.476 78.9379C420.651 91.1053 410.483 99.3617 397.881 99.3617H394.231C379.891 99.3617 368.245 87.7158 368.245 73.3757V70.7684C368.245 56.4283 379.891 44.7824 394.231 44.7824H397.881C412.047 44.7824 420.478 52.9519 421.607 63.6418C421.694 64.424 421.086 65.0324 420.391 65.0324L407.702 65.2062C407.007 65.2062 406.398 64.6847 406.224 64.0764C405.877 62.5989 405.355 61.2083 404.66 60.0785C402.661 56.6021 399.532 55.3854 396.317 55.3854C392.666 55.3854 389.364 56.9498 387.452 61.0345C386.148 63.7287 385.54 68.1611 385.54 71.7244C385.54 75.5484 386.235 80.1547 387.713 82.9358C389.711 86.7598 392.927 88.0635 396.404 88.0635C399.88 88.0635 403.096 86.586 405.095 82.9358C405.79 81.6321 406.224 80.1547 406.485 78.4165C406.572 77.7212 407.267 77.1128 407.963 77.1128H421.086C421.955 77.2866 422.65 78.0688 422.476 78.9379ZM502.694 44.6086H498.001C483.661 44.6086 472.015 56.2545 472.015 70.5946V73.4626C472.015 87.8027 483.661 99.4486 498.001 99.4486H501.912C513.645 99.4486 525.551 91.7137 527.029 81.0238C527.116 80.3285 526.594 79.7201 525.899 79.7201H512.602C511.733 79.7201 511.038 80.3285 510.777 81.1107C510.603 81.8059 510.342 82.5012 509.995 83.0227C507.213 87.9765 504.954 88.1504 500.087 88.1504C496.437 88.1504 493.134 86.8467 491.048 83.0227C490.005 81.1107 489.397 78.3296 489.049 75.5485L511.646 75.4615V75.5485H527.116C528.072 75.5485 528.854 74.7663 528.854 73.8972C528.854 73.7233 528.854 73.6364 528.854 73.5495V70.6815C528.333 58.0796 518.164 44.6086 502.694 44.6086ZM489.397 64.9455C489.745 63.468 490.179 62.0774 490.701 61.0345C492.786 56.9498 496.263 55.3854 500 55.3854C503.389 55.3854 506.605 56.6021 508.691 60.0785C509.473 61.3822 510.081 63.1203 510.516 65.0324H489.397V64.9455ZM303.758 81.5452C303.758 86.4122 301.759 90.3231 298.109 93.4519C294.458 96.6675 285.681 99.4486 278.467 99.2748C271.253 99.101 263.171 98.5795 256.479 93.278C251.699 89.5409 250.743 84.1525 250.569 81.4583C250.482 80.5023 251.264 79.7201 252.22 79.7201H265.517C266.473 79.7201 267.169 80.5023 267.169 81.3714C267.169 85.2823 270.384 88.9325 278.728 88.9325C287.071 88.9325 289.939 83.5441 285.594 80.4154C281.248 77.2866 275.686 79.1987 266.039 76.4175C256.479 73.6364 251.438 69.7255 252.046 59.5571C252.568 49.4755 264.648 46.1729 264.648 46.1729C271.514 44.0871 282.204 43.9133 291.243 47.3028C299.499 50.4315 301.15 57.1236 301.411 61.6429C301.411 62.2513 300.89 62.8596 300.281 62.7727L287.94 62.5989C287.419 62.5989 286.55 62.4251 286.202 61.9905C285.767 61.556 285.767 60.6 285.507 59.9916C285.507 59.9047 285.507 59.9047 285.42 59.8178C285.159 59.1225 284.811 58.4272 284.29 57.7319C283.421 56.6021 282.204 55.733 280.814 55.2985C277.772 54.4294 274.035 53.9079 270.993 55.2985C268.994 56.1676 267.516 58.688 268.212 60.8607C268.82 62.7727 271.427 63.5549 273.165 64.0764C279.249 65.8146 288.027 65.1193 295.154 68.5088C302.106 71.9851 303.758 76.6783 303.758 81.5452ZM361.9 81.5452C361.9 86.4122 359.901 90.3231 356.251 93.4519C352.601 96.6675 343.823 99.4486 336.61 99.2748C329.396 99.101 321.313 98.5795 314.621 93.278C309.841 89.5409 308.885 84.1525 308.712 81.4583C308.625 80.5023 309.407 79.7201 310.363 79.7201H323.66C324.616 79.7201 325.398 80.5023 325.398 81.3714C325.398 85.2823 328.614 88.9325 336.957 88.9325C345.301 88.9325 348.169 83.5441 343.823 80.4154C339.478 77.2866 333.915 79.1987 324.268 76.4175C314.708 73.6364 309.668 69.7255 310.276 59.5571C310.797 49.4755 322.878 46.1729 322.878 46.1729C329.744 44.0871 340.434 43.9133 349.472 47.3028C357.729 50.4315 359.38 57.1236 359.641 61.6429C359.641 62.2513 359.119 62.8596 358.511 62.7727L346.17 62.5989C345.648 62.5989 344.866 62.4251 344.432 61.9905C343.997 61.556 343.91 60.6 343.736 59.9916C343.736 59.9047 343.736 59.9047 343.649 59.8178C343.389 59.1225 343.041 58.4272 342.519 57.7319C341.65 56.6021 340.434 55.733 339.043 55.2985C336.001 54.4294 332.264 53.9079 329.222 55.2985C327.223 56.1676 325.746 58.688 326.441 60.8607C327.05 62.7727 329.657 63.5549 331.395 64.0764C337.479 65.8146 346.257 65.1193 353.383 68.5088C360.336 71.9851 361.9 76.6783 361.9 81.5452ZM469.06 47.3897V56.1676C469.06 57.0367 468.278 57.8189 467.409 57.8189C459.674 57.9058 456.893 58.4272 451.939 61.9036C448.115 64.6847 447.159 69.204 446.898 71.5506V96.4937C446.898 97.3628 446.203 98.0581 445.334 98.0581H431.341C430.472 98.0581 429.777 97.3628 429.777 96.4937V47.2159C429.777 46.3468 430.472 45.6515 431.341 45.6515H445.334C446.203 45.6515 446.898 46.3468 446.898 47.2159V52.7781C452.026 47.129 459.848 45.4777 463.932 45.4777H467.148C468.191 45.4777 469.06 46.3468 469.06 47.3897ZM739.002 49.1279V57.9058C739.002 58.7749 738.22 59.5571 737.351 59.5571C729.616 59.644 726.834 60.1654 721.881 63.6418C718.404 66.1622 717.274 70.16 716.927 72.5935V98.2319C716.927 99.101 716.231 99.7963 715.362 99.7963H701.37C700.501 99.7963 699.806 99.101 699.806 98.2319V48.9541C699.806 48.085 700.501 47.3897 701.37 47.3897H715.275C716.145 47.3897 716.84 48.085 716.84 48.9541V54.3425C721.968 48.6933 729.702 47.129 733.787 47.129H737.003C738.133 47.2159 739.002 48.085 739.002 49.1279Z" fill="#183D57"/>
</g>
<g clip-path="url(#clip1_376_260)">
<path fill-rule="evenodd" clip-rule="evenodd" d="M93.1121 124.778C93.1121 122.87 93.1424 40.0341 93.0608 38.6957C92.9202 36.4017 91.819 34.3855 89.6942 33.5456C88.1729 32.944 50.1134 20.9316 48.4015 20.4653C47.2654 20.156 45.8198 20.8265 45.8198 22.2188L45.8717 147.083C45.8717 148.114 46.491 149.765 48.5047 148.785C50.5184 147.805 88.9658 130.619 89.9387 129.998C92.0031 128.681 93.1121 127.581 93.1121 124.778ZM96.7423 42.4812V122.409C96.7423 127.056 96.645 131.499 91.7521 133.871C87.8236 135.776 54.3245 152.356 48.0866 155.35C41.8486 158.345 37.6905 154.628 37.6905 150.6V19.9687C37.6905 14.3927 42.1611 11.6044 48.5029 13.7734C54.8448 15.9417 81.9795 26.1647 89.9847 29.0563C97.99 31.9478 96.7423 38.4535 96.7423 42.4812ZM76.8633 40.7912L91.6396 44.3466L91.4837 118.452L48.1405 134.377L48.0369 33.628L69.5009 38.9873C69.9676 40.1212 71.5745 42.2854 73.6488 42.8005C75.7225 43.3163 76.8633 40.7912 76.8633 40.7912ZM23.6563 24.116V141.443C23.6563 145.702 24.5926 148.611 28.3475 149.067C29.7827 149.241 31.0405 148.1 31.0392 146.672L30.9385 20.4301C30.9372 18.9263 29.4726 17.8629 28.0073 18.2737C23.2748 19.6011 23.6563 24.116 23.6563 24.116ZM0.0051344 32.7607V130.213C0.0051344 134.774 0.693029 136.235 3.4857 136.571C4.37975 136.679 5.17391 136.027 5.1732 135.192L5.10165 28.9423C5.10165 28.1638 4.30394 27.5884 3.48924 27.783C-0.284617 28.6874 0.0051344 32.7607 0.0051344 32.7607ZM16.9171 25.5216L16.9977 140.367C16.9983 141.656 15.833 142.658 14.5581 142.435C11.7922 141.95 11.0913 140.294 11.0913 135.529V28.5677C11.0913 28.5677 10.8304 25.0473 13.7859 23.5607C15.22 22.8392 16.9164 23.9205 16.9171 25.5216ZM221.789 51.6653H209.89C209.151 51.6653 208.56 52.2536 208.56 52.989V55.857C205.013 52.9155 200.504 51.077 195.479 51.077C184.32 51.077 175.304 60.0487 175.304 71.1531V76.6686C175.304 87.773 184.32 96.7447 195.479 96.7447C200.431 96.7447 205.013 94.9798 208.56 91.9647V94.6121C208.56 95.3475 209.151 95.9358 209.89 95.9358H221.789C222.528 95.9358 223.119 95.3475 223.119 94.6121V53.0625C223.119 52.2536 222.528 51.6653 221.789 51.6653ZM199.248 87.4053C196.218 87.4053 193.336 86.3022 191.562 83.14C190.306 80.8603 189.641 77.0363 189.641 73.9476C189.641 71.0061 190.232 67.3291 191.341 65.1229C193.114 61.7401 196.07 60.49 199.248 60.49C202.13 60.49 204.865 61.5195 206.638 64.314C208.116 66.6673 208.856 70.5648 208.856 73.9476C208.856 77.3304 208.264 80.8603 206.934 83.14C205.234 86.2286 202.278 87.4053 199.248 87.4053ZM518.065 51.6653H506.167C505.428 51.6653 504.836 52.2536 504.836 52.989V55.5629C501.289 52.5478 496.707 50.7093 491.682 50.7093C480.522 50.7093 471.506 59.6811 471.506 70.7854V76.3009C471.506 87.4053 480.522 96.377 491.682 96.377C496.707 96.377 501.363 94.5386 504.836 91.5235V94.6856C504.836 95.421 505.428 96.0093 506.167 96.0093H518.065C518.804 96.0093 519.395 95.421 519.395 94.6856V53.0625C519.395 52.2536 518.804 51.6653 518.065 51.6653ZM495.451 87.1111C492.421 87.1111 489.539 86.008 487.765 82.8458C486.509 80.5661 485.843 76.7421 485.843 73.6535C485.843 70.7119 486.435 67.035 487.543 64.8288C489.317 61.446 492.273 60.1958 495.451 60.1958C498.333 60.1958 501.067 61.2254 502.841 64.0199C504.319 66.3731 505.058 70.2707 505.058 73.6535C505.058 77.0363 504.467 80.5661 503.137 82.8458C501.363 85.9345 498.407 87.1111 495.451 87.1111ZM552.726 53.1361V60.0487C552.726 60.7841 552.134 61.3724 551.395 61.3724H541.714V83.2871C541.271 88.876 549.622 86.3757 550.582 86.2286C551.469 86.008 552.43 86.1551 552.43 87.4788C552.43 89.0231 552.43 91.7441 552.43 93.2149C552.43 94.6121 552.282 95.1269 550.878 95.4946C544.522 97.4066 542.01 96.6712 540.753 96.5976C533.659 96.377 527.155 91.1558 527.155 83.3606V38.2812C527.155 37.5458 527.746 36.9575 528.485 36.9575H540.384C541.123 36.9575 541.714 37.5458 541.714 38.2812V51.8859H551.321C552.134 51.8124 552.726 52.4007 552.726 53.1361ZM150.398 51.0034C145.373 51.0034 140.791 52.8419 137.318 55.7835V52.989C137.318 52.2536 136.726 51.6653 135.987 51.6653H124.089C123.35 51.6653 122.759 52.2536 122.759 52.989V116.6C122.759 117.336 123.35 117.924 124.089 117.924H135.987C136.726 117.924 137.318 117.336 137.318 116.6V91.8911C140.865 94.9062 145.447 96.7447 150.398 96.7447C161.558 96.7447 170.574 87.773 170.574 76.6686V71.1531C170.648 60.0487 161.558 51.0034 150.398 51.0034ZM154.167 83.14C152.394 86.1551 149.438 87.4053 146.482 87.4053C143.525 87.4053 140.569 86.3022 138.796 83.14C137.539 80.8603 136.874 77.0363 136.874 73.9476C136.874 71.0061 137.465 67.3291 138.574 65.1229C140.348 61.7401 143.304 60.49 146.482 60.49C149.364 60.49 152.098 61.5195 153.872 64.314C155.35 66.6673 156.089 70.5648 156.089 73.9476C156.089 77.3304 155.498 80.8603 154.167 83.14ZM582.434 50.5622H578.37C566.176 50.5622 556.273 60.4164 556.273 72.5504V74.9772C556.273 87.1111 566.176 96.9653 578.37 96.9653H582.434C594.628 96.9653 604.531 87.1111 604.531 74.9772V72.5504C604.531 60.4164 594.628 50.5622 582.434 50.5622ZM588.125 82.9194C586.351 85.9345 583.395 87.1846 580.439 87.1846C577.409 87.1846 574.527 86.0816 572.753 82.9194C571.497 80.6397 570.832 76.8156 570.832 73.727C570.832 70.7854 571.423 67.1085 572.532 64.9023C574.305 61.5195 577.187 60.2694 580.439 60.2694C583.321 60.2694 586.056 61.2989 587.829 64.0934C589.307 66.4466 590.046 70.3442 590.046 73.727C589.973 77.0363 589.455 80.5661 588.125 82.9194ZM375.506 79.8307C373.955 90.1262 365.308 97.1124 354.592 97.1124H351.488C339.294 97.1124 329.391 87.2582 329.391 75.1242V72.9181C329.391 60.7841 339.294 50.9299 351.488 50.9299H354.592C366.638 50.9299 373.807 57.8426 374.767 66.8879C374.841 67.5497 374.324 68.0645 373.733 68.0645L362.943 68.2116C362.352 68.2116 361.834 67.7703 361.687 67.2556C361.391 66.0054 360.948 64.8288 360.356 63.8728C358.657 60.9312 355.996 59.9017 353.262 59.9017C350.158 59.9017 347.349 61.2254 345.724 64.6817C344.615 66.9614 344.098 70.7119 344.098 73.727C344.098 76.9627 344.689 80.8603 345.945 83.2135C347.645 86.4493 350.38 87.5523 353.336 87.5523C356.292 87.5523 359.026 86.3022 360.726 83.2135C361.317 82.1105 361.687 80.8603 361.908 79.3895C361.982 78.8012 362.573 78.2864 363.165 78.2864H374.324C375.063 78.4335 375.654 79.0954 375.506 79.8307ZM443.719 50.7828H439.728C427.534 50.7828 417.631 60.6371 417.631 72.771V75.1978C417.631 87.3317 427.534 97.186 439.728 97.186H443.054C453.031 97.186 463.155 90.641 464.412 81.5957C464.486 81.0074 464.042 80.4926 463.451 80.4926H452.144C451.405 80.4926 450.814 81.0074 450.592 81.6692C450.444 82.2575 450.222 82.8458 449.927 83.2871C447.562 87.4788 445.64 87.6259 441.502 87.6259C438.398 87.6259 435.59 86.5228 433.816 83.2871C432.929 81.6692 432.412 79.316 432.116 76.9627L451.331 76.8892V76.9627H464.486C465.298 76.9627 465.964 76.3009 465.964 75.5655C465.964 75.4184 465.964 75.3449 465.964 75.2713V72.8445C465.52 62.1814 456.874 50.7828 443.719 50.7828ZM432.412 67.991C432.707 66.7408 433.077 65.5642 433.52 64.6817C435.294 61.2254 438.25 59.9017 441.428 59.9017C444.31 59.9017 447.044 60.9312 448.818 63.8728C449.483 64.9759 450.001 66.4466 450.37 68.0645H432.412V67.991ZM274.555 82.0369C274.555 86.1551 272.855 89.4644 269.751 92.1118C266.648 94.8327 259.183 97.186 253.049 97.0389C246.916 96.8918 240.043 96.4506 234.352 91.9647C230.287 88.8025 229.474 84.2431 229.327 81.9634C229.253 81.1544 229.918 80.4926 230.731 80.4926H242.038C242.851 80.4926 243.442 81.1544 243.442 81.8898C243.442 85.1991 246.176 88.2877 253.271 88.2877C260.366 88.2877 262.805 83.7283 259.109 81.0809C255.414 78.4335 250.685 80.0514 242.481 77.6981C234.352 75.3449 230.066 72.0356 230.583 63.4315C231.026 54.901 241.299 52.1065 241.299 52.1065C247.137 50.3416 256.227 50.1945 263.913 53.0625C270.934 55.7099 272.338 61.3725 272.56 65.1965C272.56 65.7113 272.116 66.226 271.599 66.1525L261.105 66.0054C260.661 66.0054 259.922 65.8583 259.627 65.4906C259.257 65.1229 259.257 64.314 259.036 63.7992C259.036 63.7257 259.036 63.7257 258.962 63.6522C258.74 63.0638 258.444 62.4755 258.001 61.8872C257.262 60.9312 256.227 60.1958 255.045 59.8281C252.458 59.0927 249.28 58.6515 246.694 59.8281C244.994 60.5635 243.738 62.6962 244.329 64.5346C244.846 66.1525 247.063 66.8143 248.541 67.2556C253.715 68.7264 261.179 68.138 267.239 71.0061C273.151 73.9476 274.555 77.9187 274.555 82.0369ZM323.996 82.0369C323.996 86.1551 322.296 89.4644 319.193 92.1118C316.089 94.8327 308.624 97.186 302.49 97.0389C296.357 96.8918 289.484 96.4506 283.793 91.9647C279.728 88.8025 278.915 84.2431 278.768 81.9634C278.694 81.1544 279.359 80.4926 280.172 80.4926H291.479C292.292 80.4926 292.957 81.1544 292.957 81.8898C292.957 85.1991 295.691 88.2877 302.786 88.2877C309.881 88.2877 312.32 83.7283 308.624 81.0809C304.929 78.4335 300.199 80.0514 291.996 77.6981C283.867 75.3449 279.581 72.0356 280.098 63.4315C280.541 54.901 290.814 52.1065 290.814 52.1065C296.652 50.3416 305.742 50.1945 313.428 53.0625C320.449 55.7099 321.853 61.3725 322.075 65.1965C322.075 65.7113 321.631 66.226 321.114 66.1525L310.62 66.0054C310.176 66.0054 309.511 65.8583 309.142 65.4906C308.772 65.1229 308.698 64.314 308.55 63.7992C308.55 63.7257 308.55 63.7257 308.477 63.6522C308.255 63.0638 307.959 62.4755 307.516 61.8872C306.777 60.9312 305.742 60.1958 304.56 59.8281C301.973 59.0927 298.795 58.6515 296.209 59.8281C294.509 60.5635 293.253 62.6962 293.844 64.5346C294.361 66.1525 296.578 66.8143 298.056 67.2556C303.229 68.7264 310.694 68.138 316.754 71.0061C322.666 73.9476 323.996 77.9187 323.996 82.0369ZM415.118 53.1361V60.5635C415.118 61.2989 414.453 61.9608 413.714 61.9608C407.137 62.0343 404.772 62.4755 400.56 65.4171C397.308 67.7703 396.495 71.5944 396.273 73.5799V94.6856C396.273 95.421 395.682 96.0093 394.943 96.0093H383.045C382.306 96.0093 381.714 95.421 381.714 94.6856V52.989C381.714 52.2536 382.306 51.6653 383.045 51.6653H394.943C395.682 51.6653 396.273 52.2536 396.273 52.989V57.6955C400.633 52.9155 407.285 51.5182 410.758 51.5182H413.493C414.379 51.5182 415.118 52.2536 415.118 53.1361ZM644.661 54.6069V62.0343C644.661 62.7697 643.996 63.4315 643.257 63.4315C636.679 63.5051 634.314 63.9463 630.102 66.8879C627.146 69.0205 626.185 72.4033 625.889 74.4624V96.1564C625.889 96.8918 625.298 97.4801 624.559 97.4801H612.661C611.922 97.4801 611.331 96.8918 611.331 96.1564V54.4598C611.331 53.7244 611.922 53.1361 612.661 53.1361H624.485C625.224 53.1361 625.815 53.7244 625.815 54.4598V59.0192C630.176 54.2392 636.753 52.9155 640.227 52.9155H642.961C643.922 52.989 644.661 53.7244 644.661 54.6069Z" fill="#183D57"/>
</g>
<defs>
<clipPath id="clip0_376_260">
<rect width="630.096" height="124.281" fill="white" transform="translate(108.639)"/>
</clipPath>
<clipPath id="clip1_376_260">
<rect width="108.637" height="143.401" fill="white" transform="translate(0 13.0371)"/>
</clipPath>
</defs>
</svg>
