<svg xmlns="http://www.w3.org/2000/svg" xmlns:xlink="http://www.w3.org/1999/xlink" width="1920" zoomAndPan="magnify" viewBox="0 0 1440 1439.999935" height="1920" preserveAspectRatio="xMidYMid meet" version="1.0"><defs><clipPath id="c905e85a5d"><path d="M 332 280.644531 L 1146 280.644531 L 1146 1192 L 332 1192 Z M 332 280.644531 " clip-rule="nonzero"/></clipPath></defs><g clip-path="url(#c905e85a5d)"><path fill="#1f1f1f" d="M 529.332031 1143.851562 L 529.332031 937.375 C 538.277344 924.566406 552.089844 907.265625 571.917969 889.980469 C 586.765625 877.070312 602.804688 866.023438 623.324219 854.984375 C 694.785156 816.609375 777.839844 801.144531 782.726562 800.265625 C 866.695312 785.179688 876.527344 794.933594 944.578125 780.671875 C 967.367188 775.871094 1001.972656 765.496094 1036.773438 740.878906 C 1104.953125 692.691406 1152.488281 605.152344 1144.203125 510.667969 C 1133.261719 386.613281 1032.113281 287.371094 904.875 280.714844 L 332.558594 280.65625 L 332.785156 503.417969 C 332.910156 572.433594 333.066406 641.410156 333.164062 710.429688 C 346.558594 698.464844 364.050781 684.019531 385.640625 668.988281 C 421.667969 643.933594 451.992188 629.195312 463.1875 623.988281 C 480.453125 615.90625 502.648438 606.660156 529.28125 598.453125 L 529.28125 443.921875 L 767.160156 443.921875 C 786.144531 434.390625 807.570312 428.996094 830.257812 428.996094 C 908.015625 428.996094 971.027344 492.144531 971.027344 569.992188 C 971.027344 602.84375 959.832031 633.039062 941.015625 657.027344 C 944.988281 654.5625 949.144531 651.816406 953.371094 648.761719 C 982.027344 628.027344 998.128906 605.210938 1010.296875 587.667969 C 1014.355469 581.828125 1027.4375 559.992188 1041.816406 529.632812 C 1060.632812 489.90625 1063.40625 455.816406 1063.980469 447.296875 C 1065.265625 428.238281 1063.757812 412.175781 1062.023438 400.621094 C 1069.152344 424.074219 1084.023438 484.84375 1059.757812 553.648438 C 1041.757812 604.617188 1010.898438 635.445312 996.910156 649.140625 C 980.546875 665.144531 939.664062 704.839844 878.582031 715.753906 C 843.402344 722.03125 808.347656 717.554688 751.9375 710.359375 C 731.757812 707.769531 707.519531 703.828125 674.363281 708.433594 C 668.335938 709.289062 648.546875 712.25 625.011719 720.863281 C 611.898438 725.664062 570.703125 742.074219 522.097656 789.375 C 435.578125 873.539062 337.796875 1043.695312 332.910156 1052.308594 C 332.96875 1098.820312 333.039062 1145.339844 333.097656 1191.851562 " fill-opacity="1" fill-rule="nonzero"/></g><path fill="#cea8f0" d="M 467.742188 655.859375 C 438.304688 669.242188 427.335938 677.070312 400.125 696.722656 C 372.355469 716.824219 350.226562 737.460938 333.183594 755.605469 C 333.242188 784.859375 333.308594 814.148438 333.367188 843.398438 L 333.019531 981.8125 C 393.46875 877.929688 457.519531 808.191406 502.433594 765.523438 C 522.886719 746.113281 557.597656 719.421875 599.390625 693.890625 C 625.078125 676.308594 666.839844 644.945312 660.628906 629.605469 C 652.996094 610.769531 589.773438 618.175781 567.800781 621.496094 C 559.011719 622.664062 540.222656 627.460938 524.6875 632.125 C 522.320312 632.855469 502.464844 640.050781 467.730469 655.828125 L 467.730469 655.859375 Z M 467.742188 655.859375 " fill-opacity="1" fill-rule="nonzero"/><path fill="#c8f000" d="M 933.734375 632.941406 C 896.734375 601.453125 843.78125 618.359375 808.570312 641.9375 C 798.640625 648.59375 789.277344 654.902344 778.375 659.546875 C 756.179688 669.019531 732.546875 663.839844 715.714844 645.21875 C 683.5625 609.648438 679.910156 554.679688 705.570312 513.503906 C 713.796875 500.339844 723.785156 488.921875 737.878906 483.492188 C 760.257812 474.847656 783.273438 481.378906 801.933594 496.203125 C 815.074219 506.648438 828.15625 515.574219 842.875 522.933594 C 871.496094 536.28125 913.886719 540.601562 937.183594 515.234375 C 957.507812 551.425781 954.070312 596.050781 933.746094 632.914062 L 933.746094 632.941406 Z M 933.734375 632.941406 " fill-opacity="1" fill-rule="nonzero"/><path fill="#1f1f1f" d="M 932.46875 634.421875 C 916.039062 620.433594 895.273438 615.148438 870.753906 618.710938 C 850.972656 621.59375 829.265625 630.410156 809.640625 643.554688 L 809.332031 643.757812 C 799.429688 650.398438 790.074219 656.664062 779.125 661.339844 C 771.511719 664.589844 763.792969 666.175781 756.25 666.175781 C 740.730469 666.175781 725.9375 659.441406 714.253906 646.523438 C 698.484375 629.078125 688.808594 606.027344 687.007812 581.605469 C 685.21875 557.382812 691.222656 532.824219 703.90625 512.46875 C 714.011719 496.3125 724.574219 486.527344 737.167969 481.671875 C 758.683594 473.359375 782.113281 477.980469 803.128906 494.675781 C 817.507812 506.105469 830.40625 514.523438 843.730469 521.191406 C 872.476562 534.597656 913.566406 538.050781 935.730469 513.921875 L 937.550781 511.945312 L 938.867188 514.289062 C 958.539062 549.324219 957.339844 593.820312 935.683594 633.417969 C 935.195312 634.316406 934.679688 635.046875 934.191406 635.941406 M 758.574219 481.542969 C 751.800781 481.542969 745.09375 482.789062 738.582031 485.300781 C 726.8125 489.835938 716.855469 499.125 707.226562 514.523438 C 694.972656 534.1875 689.179688 557.902344 690.910156 581.3125 C 692.652344 604.867188 701.980469 627.101562 717.164062 643.902344 C 733.355469 661.816406 755.957031 666.992188 777.617188 657.746094 C 788.234375 653.21875 797.445312 647.046875 807.179688 640.515625 L 807.492188 640.3125 C 844.1875 615.742188 896.152344 600.390625 933.152344 629.925781 C 952.863281 592.789062 954.1875 551.496094 936.742188 518.484375 C 912.894531 541.9375 871.308594 538.335938 842.058594 524.695312 C 828.4375 517.882812 815.316406 509.324219 800.726562 497.722656 C 787.253906 487.023438 772.777344 481.542969 758.574219 481.542969 Z M 758.574219 481.542969 " fill-opacity="1" fill-rule="nonzero"/><path fill="#c8f000" d="M 930.171875 503.691406 C 903.382812 532.84375 856.894531 517.738281 829.65625 497.410156 C 806.925781 480.464844 790.417969 465.882812 761.261719 465.160156 C 804.25 442.371094 850.527344 437.769531 893.511719 464.429688 C 908.894531 473.960938 921.21875 487.179688 930.171875 503.691406 Z M 930.171875 503.691406 " fill-opacity="1" fill-rule="nonzero"/><path fill="#1f1f1f" d="M 891.070312 521.875 C 887.4375 521.875 883.679688 521.589844 879.808594 521.027344 C 862.636719 518.523438 843.9375 510.484375 828.496094 498.96875 C 826.433594 497.429688 824.429688 495.910156 822.453125 494.421875 C 802.703125 479.519531 787.105469 467.742188 761.222656 467.097656 L 753.785156 466.914062 L 760.355469 463.429688 C 808.066406 438.136719 854.46875 437.90625 894.546875 462.765625 C 910.1875 472.460938 922.753906 485.914062 931.886719 502.753906 L 932.546875 503.980469 L 931.605469 505.003906 C 921.375 516.140625 907.5 521.875 891.058594 521.875 Z M 768.464844 463.691406 C 791.535156 466.210938 807.0625 477.941406 824.789062 491.316406 C 826.753906 492.808594 828.761719 494.316406 830.8125 495.84375 C 855.296875 514.117188 901.019531 530.925781 927.777344 503.378906 C 919.035156 487.714844 907.160156 475.179688 892.480469 466.074219 C 855.402344 443.082031 812.648438 442.285156 768.464844 463.679688 Z M 768.464844 463.691406 " fill-opacity="1" fill-rule="nonzero"/><path fill="#c8f000" d="M 925.578125 644.683594 C 886.835938 699.59375 808.386719 717.867188 751.898438 678.988281 C 796.375 678.226562 806.234375 655.351562 843.710938 639.191406 C 870.628906 627.578125 901.867188 623.511719 925.570312 644.683594 Z M 925.578125 644.683594 " fill-opacity="1" fill-rule="nonzero"/><path fill="#1f1f1f" d="M 819.199219 701.6875 C 794.621094 701.6875 770.996094 694.492188 750.789062 680.59375 L 745.785156 677.148438 L 751.859375 677.039062 C 779.84375 676.5625 793.890625 667.121094 810.148438 656.179688 C 819.152344 650.125 829.363281 643.261719 842.933594 637.402344 C 867.132812 626.957031 901.738281 619.558594 928.136719 644.398438 C 909.1875 672.054688 879.066406 691.972656 845.785156 698.914062 C 836.878906 700.773438 827.980469 701.6875 819.199219 701.6875 Z M 758.070312 680.679688 C 783.640625 696.382812 814.265625 701.511719 844.996094 695.097656 C 876.175781 688.59375 904.492188 670.371094 922.960938 644.992188 C 898.449219 624.328125 866.851562 631.328125 844.480469 640.972656 C 831.242188 646.6875 821.625 653.152344 812.328125 659.402344 C 796.773438 669.863281 783.195312 678.996094 758.070312 680.671875 Z M 758.070312 680.679688 " fill-opacity="1" fill-rule="nonzero"/></svg>